<svg width="440" height="116" viewBox="0 0 440 116" fill="none" xmlns="http://www.w3.org/2000/svg">
<rect width="440" height="100" fill="#5CB04B"/>
<g clip-path="url(#clip0_4_55)">
<g opacity="0.1">
<rect x="195.264" y="-304" width="40" height="600" transform="rotate(45 195.264 -304)" fill="white"/>
<rect x="284.36" y="-214.905" width="40" height="600" transform="rotate(45 284.36 -214.905)" fill="white"/>
<rect x="373.455" y="-125.809" width="40" height="600" transform="rotate(45 373.455 -125.809)" fill="white"/>
<rect x="462.55" y="-36.7136" width="40" height="600" transform="rotate(45 462.55 -36.7136)" fill="white"/>
<rect x="551.646" y="52.3818" width="40" height="600" transform="rotate(45 551.646 52.3818)" fill="white"/>
<rect x="251.833" y="-247.431" width="6" height="600" transform="rotate(45 251.833 -247.431)" fill="white"/>
<rect x="340.928" y="-158.336" width="6" height="600" transform="rotate(45 340.928 -158.336)" fill="white"/>
<rect x="430.023" y="-69.2406" width="6" height="600" transform="rotate(45 430.023 -69.2406)" fill="white"/>
<rect x="519.119" y="19.8549" width="6" height="600" transform="rotate(45 519.119 19.8549)" fill="white"/>
</g>
</g>
<rect y="97" width="440" height="3" fill="#86C879"/>
<rect x="159" width="120" height="100" fill="url(#paint0_linear_4_55)"/>
<rect x="20" y="100" width="400" height="16" fill="black" fill-opacity="0.05"/>
<defs>
<linearGradient id="paint0_linear_4_55" x1="219" y1="0" x2="219" y2="100" gradientUnits="userSpaceOnUse">
<stop stop-color="#D9D9D9"/>
<stop offset="0.0001" stop-color="white"/>
<stop offset="1" stop-color="#D7D7D7"/>
</linearGradient>
<clipPath id="clip0_4_55">
<rect width="440" height="100" fill="white"/>
</clipPath>
</defs>
</svg>
