<svg width="1292" height="900" viewBox="0 0 1292 900" fill="none" xmlns="http://www.w3.org/2000/svg">
<g opacity="0.2" clip-path="url(#clip0_7_121)">
<path d="M811.545 -32.3843L1133.13 289.205L650.751 450L645.075 444.325L811.545 -32.3843Z" fill="url(#paint0_linear_7_121)"/>
<path d="M165.545 286.384L487.135 -35.2052L647.93 447.179L642.255 452.854L165.545 286.384Z" fill="url(#paint1_linear_7_121)"/>
<path d="M808.724 929.563L1130.31 607.974L647.93 447.179L642.255 452.854L808.724 929.563Z" fill="url(#paint2_linear_7_121)"/>
<path d="M162.724 616.437L484.314 938.026L645.109 455.642L639.434 449.967L162.724 616.437Z" fill="url(#paint3_linear_7_121)"/>
<path d="M1030.44 115.461L1148.15 554.761L649.995 452.821L647.918 445.069L1030.44 115.461Z" fill="url(#paint4_linear_7_121)"/>
<path d="M311.603 68.5229L750.902 -49.187L648.962 448.967L641.21 451.045L311.603 68.5229Z" fill="url(#paint5_linear_7_121)"/>
<path d="M547.022 947.122L986.322 829.412L648.962 448.967L641.21 451.045L547.022 947.122Z" fill="url(#paint6_linear_7_121)"/>
<path d="M144.134 352.946L261.843 792.246L642.288 454.886L640.211 447.134L144.134 352.946Z" fill="url(#paint7_linear_7_121)"/>
<path d="M1146.08 352.946L1028.37 792.246L647.93 454.886L650.008 447.134L1146.08 352.946Z" fill="url(#paint8_linear_7_121)"/>
<path d="M547.023 -47.1219L986.322 70.588L648.963 451.033L641.21 448.955L547.023 -47.1219Z" fill="url(#paint9_linear_7_121)"/>
<path d="M311.603 831.477L750.902 949.187L648.963 451.032L641.21 448.955L311.603 831.477Z" fill="url(#paint10_linear_7_121)"/>
<path d="M259.779 115.461L142.069 554.761L640.223 452.821L642.301 445.069L259.779 115.461Z" fill="url(#paint11_linear_7_121)"/>
</g>
<defs>
<linearGradient id="paint0_linear_7_121" x1="972.34" y1="128.41" x2="650.751" y2="450" gradientUnits="userSpaceOnUse">
<stop stop-color="white" stop-opacity="0"/>
<stop offset="1" stop-color="white"/>
</linearGradient>
<linearGradient id="paint1_linear_7_121" x1="326.34" y1="125.59" x2="647.93" y2="447.179" gradientUnits="userSpaceOnUse">
<stop stop-color="white" stop-opacity="0"/>
<stop offset="1" stop-color="white"/>
</linearGradient>
<linearGradient id="paint2_linear_7_121" x1="969.519" y1="768.768" x2="647.93" y2="447.179" gradientUnits="userSpaceOnUse">
<stop stop-color="white" stop-opacity="0"/>
<stop offset="1" stop-color="white"/>
</linearGradient>
<linearGradient id="paint3_linear_7_121" x1="323.519" y1="777.231" x2="645.109" y2="455.642" gradientUnits="userSpaceOnUse">
<stop stop-color="white" stop-opacity="0"/>
<stop offset="1" stop-color="white"/>
</linearGradient>
<linearGradient id="paint4_linear_7_121" x1="1089.29" y1="335.111" x2="649.995" y2="452.821" gradientUnits="userSpaceOnUse">
<stop stop-color="white" stop-opacity="0"/>
<stop offset="1" stop-color="white"/>
</linearGradient>
<linearGradient id="paint5_linear_7_121" x1="531.252" y1="9.66794" x2="648.962" y2="448.967" gradientUnits="userSpaceOnUse">
<stop stop-color="white" stop-opacity="0"/>
<stop offset="1" stop-color="white"/>
</linearGradient>
<linearGradient id="paint6_linear_7_121" x1="766.672" y1="888.267" x2="648.962" y2="448.967" gradientUnits="userSpaceOnUse">
<stop stop-color="white" stop-opacity="0"/>
<stop offset="1" stop-color="white"/>
</linearGradient>
<linearGradient id="paint7_linear_7_121" x1="202.989" y1="572.596" x2="642.288" y2="454.886" gradientUnits="userSpaceOnUse">
<stop stop-color="white" stop-opacity="0"/>
<stop offset="1" stop-color="white"/>
</linearGradient>
<linearGradient id="paint8_linear_7_121" x1="1087.23" y1="572.596" x2="647.93" y2="454.886" gradientUnits="userSpaceOnUse">
<stop stop-color="white" stop-opacity="0"/>
<stop offset="1" stop-color="white"/>
</linearGradient>
<linearGradient id="paint9_linear_7_121" x1="766.673" y1="11.733" x2="648.963" y2="451.033" gradientUnits="userSpaceOnUse">
<stop stop-color="white" stop-opacity="0"/>
<stop offset="1" stop-color="white"/>
</linearGradient>
<linearGradient id="paint10_linear_7_121" x1="531.253" y1="890.332" x2="648.963" y2="451.032" gradientUnits="userSpaceOnUse">
<stop stop-color="white" stop-opacity="0"/>
<stop offset="1" stop-color="white"/>
</linearGradient>
<linearGradient id="paint11_linear_7_121" x1="200.924" y1="335.111" x2="640.223" y2="452.821" gradientUnits="userSpaceOnUse">
<stop stop-color="white" stop-opacity="0"/>
<stop offset="1" stop-color="white"/>
</linearGradient>
<clipPath id="clip0_7_121">
<rect width="1292" height="1292" fill="white" transform="translate(0 -196)"/>
</clipPath>
</defs>
</svg>
