<svg width="240" height="240" viewBox="0 0 240 240" fill="none" xmlns="http://www.w3.org/2000/svg">
<g opacity="0.5">
<path d="M61.6406 25.1719C35.5781 26.8125 13.5469 42.8906 4.21875 67.125C2.625 71.25 1.03125 78.2344 0.421875 83.4375C-2.53125 109.781 12.2344 136.453 36.3281 148.172C41.2969 150.562 47.6719 152.812 49.5469 152.812C51.0469 152.812 53.2969 151.594 53.9062 150.516C54.9844 148.453 54 144.422 52.1719 143.672C51.7031 143.484 49.5469 142.734 47.3437 141.938C38.6719 138.844 32.0625 134.672 26.0625 128.531C18.0469 120.328 13.0312 110.906 10.9688 100.031C9.9375 94.5938 9.9375 85.4531 10.9688 79.9688C14.6719 60.3281 28.8281 44.2031 48 37.7812C59.9062 33.7969 74.2031 34.3594 86.2031 39.3281C100.359 45.1406 111.984 57.7031 117.141 72.8438C118.875 77.9531 120.187 79.4531 122.812 79.4062C125.297 79.3125 126.891 78.1875 127.547 75.9844C128.062 74.2969 127.969 73.6875 126.375 69.0938C122.953 59.2031 118.125 51.5156 110.625 44.0625C99.5156 32.9531 85.7344 26.625 69.8906 25.3125C66.8906 25.0781 64.3594 24.8906 64.2188 24.9375C64.0781 24.9844 62.9531 25.0781 61.6406 25.1719Z" fill="white"/>
<path d="M57.1406 45.7031C42.75 48.4219 30.2344 58.1719 24.1406 71.3906C21.0469 78.0938 20.3906 81.3281 20.4375 90C20.4375 97.0312 20.5781 98.1094 21.7031 101.953C23.2031 106.875 26.5781 113.719 28.9688 116.719C35.1094 124.453 44.3906 131.25 48.8438 131.25C52.6406 131.25 54.8438 126.609 52.5 123.609C51.9844 122.953 49.9219 121.453 47.8594 120.281C39.5156 115.453 33.7031 107.906 31.125 98.3906C30.0938 94.6875 29.9531 85.7344 30.8438 82.0312C31.2188 80.625 32.5313 77.25 33.8438 74.5312C35.9063 70.2188 36.7031 69.1406 40.5 65.3906C44.0625 61.8281 45.4688 60.75 49.2188 58.9219C54.8438 56.1562 58.9219 55.1719 64.9219 55.2188C70.875 55.2188 75 56.2031 80.5781 58.875C84.2344 60.6562 85.6875 61.6875 89.0625 65.0625C91.875 67.875 93.8438 70.3594 95.3906 73.0312C97.8281 77.3438 99.0469 78.375 101.438 78.375C104.625 78.375 106.781 75.7031 106.172 72.5156C105.656 69.9375 101.531 63.5625 97.7813 59.625C91.0313 52.5469 84.7031 48.75 75.4688 46.3594C70.7344 45.0938 61.875 44.8125 57.1406 45.7031Z" fill="white"/>
<path d="M171.094 60.9844C165.516 61.9219 159.703 66.2812 157.5 71.25C156.891 72.6562 156.328 73.9219 156.281 73.9688C156.188 74.0625 154.734 73.4531 152.953 72.5625C149.953 71.1094 149.531 71.0156 144.609 71.0156C139.781 71.0156 139.266 71.1094 136.406 72.4688C132.609 74.2969 129.281 77.5781 127.406 81.4219L126 84.3281L124.266 83.2031C121.641 81.4688 117.094 80.4844 113.063 80.7656C106.641 81.2344 100.266 85.4531 97.6406 90.8906C96.9844 92.3438 96.3281 93.6094 96.2344 93.7031C96.1406 93.8438 91.6875 89.5781 86.3438 84.3281C81 79.0312 75.6094 74.1094 74.3906 73.4062C71.0625 71.4844 65.8594 70.5469 62.25 71.2031C59.0625 71.7656 54.3281 73.875 52.4063 75.6094C45.5625 81.8906 44.0156 91.7344 48.6094 99.8438C49.3594 101.156 63.0938 115.266 84.5156 136.734C115.453 167.719 119.109 171.516 118.078 171.75C117.469 171.891 108.188 173.391 97.5 175.078C86.8125 176.766 77.2031 178.359 76.1719 178.641C66.6094 181.266 59.1563 191.859 60.1406 201.375C60.8438 208.078 65.7656 213.375 72.6094 214.688C75.9844 215.297 166.641 215.297 173.859 214.688C184.313 213.75 192.984 210.562 201.563 204.469C205.266 201.844 223.547 183.891 227.438 179.062C230.859 174.844 232.125 172.875 234.422 168.281C237.844 161.297 240 152.062 240 144.141C240 133.172 235.828 120.609 229.313 111.938C224.578 105.656 187.734 65.5312 185.063 63.7969C181.078 61.1719 176.016 60.1875 171.094 60.9844ZM179.109 71.8594C180.516 72.7031 207.656 102.047 218.578 114.516C226.031 122.953 229.781 132.984 229.781 144.375C229.781 153.469 227.297 161.906 222.422 169.266C219.703 173.344 203.203 190.312 197.578 194.812C193.078 198.469 187.266 201.516 181.594 203.297L177.422 204.609L125.438 204.75C67.7344 204.891 71.9063 205.125 70.5 201.797C69.7031 199.875 70.2656 196.172 71.7188 193.781C72.9844 191.812 75.5625 189.562 77.5781 188.719C78.4219 188.344 90.0938 186.328 103.453 184.219C116.813 182.156 128.813 180.234 130.125 179.953C133.734 179.25 135.563 176.719 134.766 173.531C134.578 172.688 122.063 159.797 95.8594 133.594C57.2813 94.9688 55.7813 93.375 55.7813 90.375C55.7813 86.7656 58.6406 82.5469 61.7344 81.5156C64.0313 80.7656 67.1719 80.9062 69 81.8438C69.8438 82.2656 82.1719 94.1719 96.3281 108.281C110.531 122.391 122.625 134.203 123.234 134.531C126.094 135.984 129.844 133.266 129.844 129.75C129.844 127.875 129.609 127.594 118.359 116.297C110.953 108.844 106.688 104.156 106.172 103.031C103.781 97.1719 108.281 90.4688 114.609 90.4688C118.031 90.4688 119.063 91.2656 131.063 103.172C142.547 114.562 142.875 114.844 144.75 114.844C148.313 114.844 150.984 111.094 149.531 108.234C149.203 107.625 146.156 104.25 142.734 100.781C136.359 94.2656 135.469 92.8594 135.469 89.3906C135.469 86.1562 138.563 81.9375 141.563 81.0938C143.719 80.4844 146.344 80.4844 147.938 81.0938C148.641 81.375 152.203 84.5156 155.906 88.125C160.313 92.4375 162.938 94.7344 163.688 94.7812C166.031 94.9219 167.156 94.5938 168.469 93.2812C170.391 91.4062 170.344 88.7344 168.328 86.25C164.156 81.0469 164.672 75.2344 169.594 72.1406C172.406 70.3594 176.531 70.2188 179.109 71.8594Z" fill="white"/>
</g>
</svg>
