<svg width="418" height="152" viewBox="0 0 418 152" fill="none" xmlns="http://www.w3.org/2000/svg">
<path d="M205 117C202.5 117 196.323 111.289 188 113.5V114V151H222V116C214.555 111.041 207.5 117 205 117Z" fill="white"/>
<path d="M192 129C190.417 129.966 191.132 151.214 191.5 151H215.5C215.5 151 217 129.437 212.5 130C208 130.562 207.5 140.5 205 140.5C202.5 140.5 200 130 199 130C198 130 197.5 138.5 196 138.5C194.5 138.5 193.583 128.034 192 129Z" fill="#ECECEC"/>
<path d="M205 117C202.5 117 196.323 111.289 188 113.5V114V127.5C193 112 202 124 205 124C208 124 219 112.5 222 129.5V116C214.555 111.041 207.5 117 205 117Z" fill="#ECECEC"/>
<path d="M61.4999 151C19.0228 133.922 4 104 0.242432 67.0296L32.4999 55.5C38.2223 104.321 87.9999 124.5 167.588 136C173.2 140.757 179 145.756 185.004 151H61.4999Z" fill="url(#paint0_linear_7_117)"/>
<path d="M0.242432 67.0296L24 58.5381C14.4913 69.0404 9.94099 75.7027 4.5 90.2368C8.08194 102.953 13.7844 114.479 22.4845 124.5C56.7079 143.939 75.8711 150.189 110 151H127C158.838 148.984 171.435 147.007 172.285 140C176.422 143.539 180.659 147.205 185.004 151H127H110H61.4999C44.3955 144.123 31.7427 135.164 22.4845 124.5C13.7844 114.479 8.08194 102.953 4.5 90.2368C2.42763 82.8794 1.06507 75.1234 0.242432 67.0296Z" fill="#E2E2E2"/>
<path d="M0.242434 67.0296C52.3494 49.7186 96.5717 73.7589 185.004 151H188V113.513C138.016 46.1698 100.613 4.6801 60.165 0.0531544C42.6876 -1.94614 -3.75239 53.0345 0.242434 67.0296Z" fill="white"/>
<path d="M188 113.513C138.016 46.1698 100.613 4.6801 60.165 0.0531544C44.1348 -1.78059 3.74002 44.3198 0.242434 62.7655C60.7388 -37.1128 112.597 20.0461 184.504 115.013L163.032 96.5192L183.506 124.01L168.026 114.513L183.506 135.505L162.533 125.009L186.502 151H188V113.513Z" fill="#ECECEC"/>
<path d="M149 76.0532C149.685 74.6229 74.816 13.1477 73.7427 15.5532C72.6694 17.9587 100.243 43.0532 99.2427 45.5532C98.2427 48.0532 69.2427 25.5532 67.7427 28.0532C66.2427 30.5532 77.7427 39.5532 75.7427 42.5532C73.7427 45.5532 62.2427 43.5532 61.2427 45.5532C60.2427 47.5532 134.598 101.397 137.743 102.553C140.887 103.709 120.409 85.2199 111.243 76.0532C111.243 76.0532 129.243 86.0532 130.243 84.5532C131.243 83.0532 117.743 72.0532 117.743 72.0532L141.743 86.0532C141.743 86.0532 124.243 65.5532 126.243 63.0532C128.243 60.5532 148.315 77.4835 149 76.0532Z" fill="#ECECEC"/>
<path d="M222 116V151H226.5C321.063 72.6775 377.5 53.4999 417.5 77.9999C409.246 53.096 390.329 18.3427 365.5 8.49998C340.671 -1.34278 282.678 39.4133 222 116Z" fill="white"/>
<path d="M363.5 151H226.5C231.61 146.767 236.609 142.708 241.5 138.818C331.6 127.859 370.099 115.99 382.5 68.0183C395.538 68.1976 407.077 71.616 417.5 77.9999C419.5 95 379 151 363.5 151Z" fill="url(#paint1_linear_7_117)"/>
<path d="M389.5 68.4394C399.718 69.5459 408.982 72.7825 417.5 77.9999C418.218 84.1042 413.457 95.237 406.34 107C401.224 115.458 394.89 124.241 388.5 131.716C379.027 142.796 369.433 151 363.5 151H329.25H295H226.5C230.398 147.772 234.23 144.644 238 141.616C244.354 149.57 260.73 150.574 295 151H329.25C357.192 149.171 369.755 144.463 388.5 131.716C394.89 124.241 401.224 115.458 406.34 107C410.348 92.3627 406.957 83.9311 389.5 68.4394Z" fill="#E2E2E2"/>
<path d="M222 116V151H224.25L250.5 125L229 135L245.5 116L229 123.5L249 99.5L225.5 116.5C324.257 -1.8156 368.088 -18.0268 417.5 77.9999C409.246 53.096 390.329 18.3427 365.5 8.49998C340.671 -1.34278 282.678 39.4133 222 116Z" fill="#ECECEC"/>
<path d="M342.5 18.5C339.5 16 264 78 266 80C268 82 286 66 288 68.5C290 71 273.5 87.5 273.5 87.5C273.5 87.5 285 78.5 286.5 80C288 81.5 283 87.5 283 87.5C283 87.5 300 78 301.5 80C303 82 280 103.5 280 103.5C283.094 104.266 356.945 52.353 351.5 49C346.055 45.647 344.5 51 340.5 47.5C336.5 44 347 34 347 34C347 34 318.5 52 316.5 47.5C314.5 43 345.5 21 342.5 18.5Z" fill="#ECECEC"/>
<defs>
<linearGradient id="paint0_linear_7_117" x1="94.1212" y1="55.5" x2="94.1212" y2="151" gradientUnits="userSpaceOnUse">
<stop stop-color="#EDEDED"/>
<stop offset="1" stop-color="white"/>
</linearGradient>
<linearGradient id="paint1_linear_7_117" x1="319.786" y1="68.0183" x2="319.786" y2="151" gradientUnits="userSpaceOnUse">
<stop stop-color="#EDEDED"/>
<stop offset="1" stop-color="white"/>
</linearGradient>
</defs>
</svg>
